<?xml version="1.0" encoding="UTF-8" standalone="no"?>
<svg width="270.581mm" height="190.5mm"
 viewBox="0 0 767 540"
 xmlns="http://www.w3.org/2000/svg" xmlns:xlink="http://www.w3.org/1999/xlink"  version="1.2" baseProfile="tiny">
<title>Qt SVG Document</title>
<desc>MATLAB, The MathWorks, Inc. Version 25.2.0.3042426 R2025b Update 1</desc>
<defs>
</defs>
<g fill="none" stroke="black" stroke-width="1" fill-rule="evenodd" stroke-linecap="square" stroke-linejoin="bevel" >

<g fill="#000000" fill-opacity="1" stroke="none" transform="matrix(0.75,0,0,0.75,0,0)"
font-family="MS Shell Dlg 2" font-size="8.25" font-weight="400" font-style="normal" 
>
<path vector-effect="none" fill-rule="evenodd" d="M0,0 L1023,0 L1023,720 L0,720 L0,0"/>
</g>

<g fill="#121212" fill-opacity="1" stroke="none" transform="matrix(7.5e-05,0,0,7.5e-05,0,0)"
font-family="MS Shell Dlg 2" font-size="8.25" font-weight="400" font-style="normal" 
>
<path vector-effect="none" fill-rule="evenodd" d="M1.33e+06,250000 L1.33e+06,6.4e+06 L9.93e+06,6.4e+06 L9.93e+06,250000 L1.33e+06,250000"/>
</g>

<g fill="#ffffff" fill-opacity="0.25098" stroke="#ffffff" stroke-opacity="0.25098" stroke-width="0.666667" stroke-linecap="butt" stroke-linejoin="round" transform="matrix(0.75,0,0,0.75,0,0)"
font-family="MS Shell Dlg 2" font-size="8.25" font-weight="400" font-style="normal" 
>
<polyline fill="none" vector-effect="none" points="269.167,25 269.167,640 " />
<polyline fill="none" vector-effect="none" points="412.5,25 412.5,640 " />
<polyline fill="none" vector-effect="none" points="555.833,25 555.833,640 " />
<polyline fill="none" vector-effect="none" points="699.167,25 699.167,640 " />
<polyline fill="none" vector-effect="none" points="842.5,25 842.5,640 " />
<polyline fill="none" vector-effect="none" points="985.833,25 985.833,640 " />
<polyline fill="none" vector-effect="none" points="133,640 993,640 " />
<polyline fill="none" vector-effect="none" points="133,578.581 993,578.581 " />
<polyline fill="none" vector-effect="none" points="133,517.162 993,517.162 " />
<polyline fill="none" vector-effect="none" points="133,455.743 993,455.743 " />
<polyline fill="none" vector-effect="none" points="133,394.324 993,394.324 " />
<polyline fill="none" vector-effect="none" points="133,332.905 993,332.905 " />
<polyline fill="none" vector-effect="none" points="133,271.486 993,271.486 " />
<polyline fill="none" vector-effect="none" points="133,210.067 993,210.067 " />
<polyline fill="none" vector-effect="none" points="133,148.648 993,148.648 " />
<polyline fill="none" vector-effect="none" points="133,87.2286 993,87.2286 " />
<polyline fill="none" vector-effect="none" points="133,25.8096 993,25.8096 " />
</g>

<g fill="#d9d9d9" fill-opacity="1" stroke="none" transform="matrix(0.75,0,0,0.75,412.592,527.98)"
font-family="MS Shell Dlg 2" font-size="8.25" font-weight="400" font-style="normal" 
>
<path vector-effect="none" fill-rule="evenodd" d="M2.23438,-0.5 C2.23438,-0.614583 2.24479,-0.703125 2.26563,-0.765625 L4.4375,-9.40625 C4.57292,-9.94792 4.64063,-10.4167 4.64063,-10.8125 C4.64063,-11.6458 4.35938,-12.0625 3.79688,-12.0625 C3.19271,-12.0625 2.74479,-11.7031 2.45313,-10.9844 C2.16146,-10.2656 1.875,-9.35417 1.59375,-8.25 C1.59375,-8.1875 1.56771,-8.14063 1.51563,-8.10938 C1.46354,-8.07813 1.41146,-8.0625 1.35938,-8.0625 L1.01563,-8.0625 C0.953125,-8.0625 0.898438,-8.09896 0.851563,-8.17188 C0.804688,-8.24479 0.78125,-8.30729 0.78125,-8.35938 C0.989583,-9.20313 1.1901,-9.91667 1.38281,-10.5 C1.57552,-11.0833 1.8776,-11.6146 2.28906,-12.0938 C2.70052,-12.5729 3.21354,-12.8125 3.82813,-12.8125 C4.54688,-12.8125 5.1849,-12.5833 5.74219,-12.125 C6.29948,-11.6667 6.57813,-11.0833 6.57813,-10.375 C7.16146,-11.1354 7.83854,-11.7318 8.60938,-12.1641 C9.38021,-12.5964 10.2031,-12.8125 11.0781,-12.8125 C11.9948,-12.8125 12.7839,-12.5781 13.4453,-12.1094 C14.1068,-11.6406 14.4375,-10.9792 14.4375,-10.125 C15.0313,-10.9688 15.7292,-11.6276 16.5313,-12.1016 C17.3333,-12.5755 18.2031,-12.8125 19.1406,-12.8125 C20.1406,-12.8125 20.9453,-12.5417 21.5547,-12 C22.1641,-11.4583 22.4688,-10.6875 22.4688,-9.6875 C22.4688,-8.89583 22.2917,-7.9401 21.9375,-6.82031 C21.5833,-5.70052 21.1458,-4.44792 20.625,-3.0625 C20.3438,-2.38542 20.2031,-1.80208 20.2031,-1.3125 C20.2031,-0.739583 20.4323,-0.453125 20.8906,-0.453125 C21.6406,-0.453125 22.2656,-0.859375 22.7656,-1.67188 C23.2656,-2.48438 23.6198,-3.34896 23.8281,-4.26563 C23.8906,-4.38021 23.974,-4.4375 24.0781,-4.4375 L24.4063,-4.4375 C24.4896,-4.4375 24.5573,-4.41146 24.6094,-4.35938 C24.6615,-4.30729 24.6875,-4.25 24.6875,-4.1875 C24.6875,-4.16667 24.6771,-4.14063 24.6563,-4.10938 C24.3854,-3.00521 23.9219,-1.98958 23.2656,-1.0625 C22.6094,-0.135417 21.7917,0.328125 20.8125,0.328125 C20.1354,0.328125 19.5573,0.09375 19.0781,-0.375 C18.599,-0.84375 18.3594,-1.41146 18.3594,-2.07813 C18.3594,-2.42188 18.4375,-2.80208 18.5938,-3.21875 C19.1354,-4.66667 19.5885,-5.96354 19.9531,-7.10938 C20.3177,-8.25521 20.5,-9.26042 20.5,-10.125 C20.5,-10.6667 20.3932,-11.125 20.1797,-11.5 C19.9661,-11.875 19.6042,-12.0625 19.0938,-12.0625 C18.0313,-12.0625 17.1146,-11.7396 16.3438,-11.0938 C15.5729,-10.4479 14.901,-9.59375 14.3281,-8.53125 C14.2969,-8.34375 14.2708,-8.19792 14.25,-8.09375 L12.375,-0.640625 C12.3125,-0.369792 12.1641,-0.140625 11.9297,0.046875 C11.6953,0.234375 11.4375,0.328125 11.1563,0.328125 C10.9271,0.328125 10.7266,0.25 10.5547,0.09375 C10.3828,-0.0625 10.2969,-0.260417 10.2969,-0.5 C10.2969,-0.614583 10.3073,-0.703125 10.3281,-0.765625 L12.1719,-8.14063 C12.3698,-8.93229 12.4688,-9.59375 12.4688,-10.125 C12.4688,-10.6667 12.3594,-11.125 12.1406,-11.5 C11.9219,-11.875 11.5469,-12.0625 11.0156,-12.0625 C10.3073,-12.0625 9.65625,-11.9063 9.0625,-11.5938 C8.46875,-11.2813 7.95052,-10.8698 7.50781,-10.3594 C7.0651,-9.84896 6.65625,-9.23958 6.28125,-8.53125 L4.3125,-0.640625 C4.25,-0.369792 4.10417,-0.140625 3.875,0.046875 C3.64583,0.234375 3.38542,0.328125 3.09375,0.328125 C2.86458,0.328125 2.66406,0.25 2.49219,0.09375 C2.32031,-0.0625 2.23438,-0.260417 2.23438,-0.5 "/>
</g>

<g fill="#d9d9d9" fill-opacity="1" stroke="#d9d9d9" stroke-opacity="1" stroke-width="0.666667" stroke-linecap="square" stroke-linejoin="round" transform="matrix(0.75,0,0,0.75,0,0)"
font-family="MS Shell Dlg 2" font-size="8.25" font-weight="400" font-style="normal" 
>
<polyline fill="none" vector-effect="none" points="133,640 993,640 " />
<polyline fill="none" vector-effect="none" points="133,25 993,25 " />
<polyline fill="none" vector-effect="none" points="269.167,640 269.167,631.4 " />
<polyline fill="none" vector-effect="none" points="269.167,33.6 269.167,25 " />
<polyline fill="none" vector-effect="none" points="412.5,640 412.5,631.4 " />
<polyline fill="none" vector-effect="none" points="412.5,33.6 412.5,25 " />
<polyline fill="none" vector-effect="none" points="555.833,640 555.833,631.4 " />
<polyline fill="none" vector-effect="none" points="555.833,33.6 555.833,25 " />
<polyline fill="none" vector-effect="none" points="699.167,640 699.167,631.4 " />
<polyline fill="none" vector-effect="none" points="699.167,33.6 699.167,25 " />
<polyline fill="none" vector-effect="none" points="842.5,640 842.5,631.4 " />
<polyline fill="none" vector-effect="none" points="842.5,33.6 842.5,25 " />
<polyline fill="none" vector-effect="none" points="985.833,640 985.833,631.4 " />
<polyline fill="none" vector-effect="none" points="985.833,33.6 985.833,25 " />
</g>

<g fill="#d9d9d9" fill-opacity="1" stroke="none" transform="matrix(0.75,0,0,0.75,191.375,504)"
font-family="MS Shell Dlg 2" font-size="8.25" font-weight="400" font-style="normal" 
>
<path vector-effect="none" fill-rule="evenodd" d="M13.0938,-2.20313 L13.0938,0 L0.78125,0 C0.770833,-0.552083 0.859375,-1.08333 1.04688,-1.59375 C1.36979,-2.42708 1.875,-3.25 2.5625,-4.0625 C3.25,-4.875 4.24479,-5.8125 5.54688,-6.875 C7.56771,-8.54167 8.9349,-9.85938 9.64844,-10.8281 C10.362,-11.7969 10.7188,-12.7135 10.7188,-13.5781 C10.7188,-14.4844 10.3932,-15.2474 9.74219,-15.8672 C9.09115,-16.487 8.25,-16.7969 7.21875,-16.7969 C6.11458,-16.7969 5.23177,-16.4661 4.57031,-15.8047 C3.90885,-15.1432 3.57292,-14.2292 3.5625,-13.0625 L1.21875,-13.3125 C1.375,-15.0625 1.97917,-16.3958 3.03125,-17.3125 C4.08333,-18.2292 5.49479,-18.6875 7.26563,-18.6875 C9.04688,-18.6875 10.4583,-18.1927 11.5,-17.2031 C12.5417,-16.2135 13.0625,-14.9844 13.0625,-13.5156 C13.0625,-12.776 12.9115,-12.0469 12.6094,-11.3281 C12.3073,-10.6094 11.8021,-9.85156 11.0938,-9.05469 C10.3854,-8.25781 9.20833,-7.16667 7.5625,-5.78125 C6.19792,-4.625 5.32031,-3.84115 4.92969,-3.42969 C4.53906,-3.01823 4.21875,-2.60938 3.96875,-2.20313 L13.0938,-2.20313 M15.0781,-9.17188 C15.0781,-11.3802 15.3047,-13.1536 15.7578,-14.4922 C16.2109,-15.8307 16.8828,-16.8646 17.7734,-17.5938 C18.6641,-18.3229 19.7865,-18.6875 21.1406,-18.6875 C22.1406,-18.6875 23.0182,-18.487 23.7734,-18.0859 C24.5286,-17.6849 25.151,-17.1042 25.6406,-16.3438 C26.1302,-15.5833 26.5156,-14.6615 26.7969,-13.5781 C27.0781,-12.4948 27.2188,-11.026 27.2188,-9.17188 C27.2188,-6.99479 26.9948,-5.23438 26.5469,-3.89063 C26.099,-2.54688 25.4271,-1.51042 24.5313,-0.78125 C23.6354,-0.0520833 22.5052,0.3125 21.1406,0.3125 C19.349,0.3125 17.9427,-0.328125 16.9219,-1.60938 C15.6927,-3.16146 15.0781,-5.68229 15.0781,-9.17188 M17.4219,-9.17188 C17.4219,-6.11979 17.7813,-4.08854 18.5,-3.07813 C19.2188,-2.06771 20.099,-1.5625 21.1406,-1.5625 C22.1927,-1.5625 23.0781,-2.07031 23.7969,-3.08594 C24.5156,-4.10156 24.875,-6.13021 24.875,-9.17188 C24.875,-12.2448 24.5156,-14.2839 23.7969,-15.2891 C23.0781,-16.2943 22.1875,-16.7969 21.125,-16.7969 C20.0729,-16.7969 19.2344,-16.3542 18.6094,-15.4688 C17.8177,-14.3333 17.4219,-12.2344 17.4219,-9.17188 "/>
</g>

<g fill="#d9d9d9" fill-opacity="1" stroke="none" transform="matrix(0.75,0,0,0.75,298.875,504)"
font-family="MS Shell Dlg 2" font-size="8.25" font-weight="400" font-style="normal" 
>
<path vector-effect="none" fill-rule="evenodd" d="M8.40625,0 L8.40625,-4.45313 L0.328125,-4.45313 L0.328125,-6.54688 L8.82813,-18.6094 L10.6875,-18.6094 L10.6875,-6.54688 L13.2031,-6.54688 L13.2031,-4.45313 L10.6875,-4.45313 L10.6875,0 L8.40625,0 M8.40625,-6.54688 L8.40625,-14.9375 L2.57813,-6.54688 L8.40625,-6.54688 M15.0781,-9.17188 C15.0781,-11.3802 15.3047,-13.1536 15.7578,-14.4922 C16.2109,-15.8307 16.8828,-16.8646 17.7734,-17.5938 C18.6641,-18.3229 19.7865,-18.6875 21.1406,-18.6875 C22.1406,-18.6875 23.0182,-18.487 23.7734,-18.0859 C24.5286,-17.6849 25.151,-17.1042 25.6406,-16.3438 C26.1302,-15.5833 26.5156,-14.6615 26.7969,-13.5781 C27.0781,-12.4948 27.2188,-11.026 27.2188,-9.17188 C27.2188,-6.99479 26.9948,-5.23438 26.5469,-3.89063 C26.099,-2.54688 25.4271,-1.51042 24.5313,-0.78125 C23.6354,-0.0520833 22.5052,0.3125 21.1406,0.3125 C19.349,0.3125 17.9427,-0.328125 16.9219,-1.60938 C15.6927,-3.16146 15.0781,-5.68229 15.0781,-9.17188 M17.4219,-9.17188 C17.4219,-6.11979 17.7813,-4.08854 18.5,-3.07813 C19.2188,-2.06771 20.099,-1.5625 21.1406,-1.5625 C22.1927,-1.5625 23.0781,-2.07031 23.7969,-3.08594 C24.5156,-4.10156 24.875,-6.13021 24.875,-9.17188 C24.875,-12.2448 24.5156,-14.2839 23.7969,-15.2891 C23.0781,-16.2943 22.1875,-16.7969 21.125,-16.7969 C20.0729,-16.7969 19.2344,-16.3542 18.6094,-15.4688 C17.8177,-14.3333 17.4219,-12.2344 17.4219,-9.17188 "/>
</g>

<g fill="#d9d9d9" fill-opacity="1" stroke="none" transform="matrix(0.75,0,0,0.75,406.375,504)"
font-family="MS Shell Dlg 2" font-size="8.25" font-weight="400" font-style="normal" 
>
<path vector-effect="none" fill-rule="evenodd" d="M12.9375,-14.0469 L10.6719,-13.875 C10.4635,-14.7708 10.1719,-15.4219 9.79688,-15.8281 C9.18229,-16.4844 8.42188,-16.8125 7.51563,-16.8125 C6.78646,-16.8125 6.14583,-16.6094 5.59375,-16.2031 C4.875,-15.6719 4.3099,-14.9036 3.89844,-13.8984 C3.48698,-12.8932 3.27083,-11.4583 3.25,-9.59375 C3.80208,-10.4375 4.47656,-11.0625 5.27344,-11.4688 C6.07031,-11.875 6.90104,-12.0781 7.76563,-12.0781 C9.29688,-12.0781 10.5964,-11.5156 11.6641,-10.3906 C12.7318,-9.26563 13.2656,-7.81771 13.2656,-6.04688 C13.2656,-4.88021 13.013,-3.79427 12.5078,-2.78906 C12.0026,-1.78385 11.3099,-1.01563 10.4297,-0.484375 C9.54948,0.046875 8.55208,0.3125 7.4375,0.3125 C5.53125,0.3125 3.97917,-0.388021 2.78125,-1.78906 C1.58333,-3.1901 0.984375,-5.49479 0.984375,-8.70313 C0.984375,-12.3073 1.64583,-14.9271 2.96875,-16.5625 C4.125,-17.9792 5.6875,-18.6875 7.65625,-18.6875 C9.125,-18.6875 10.3255,-18.276 11.2578,-17.4531 C12.1901,-16.6302 12.75,-15.4948 12.9375,-14.0469 M3.60938,-6.03125 C3.60938,-5.23958 3.77604,-4.48438 4.10938,-3.76563 C4.44271,-3.04688 4.90885,-2.5 5.50781,-2.125 C6.10677,-1.75 6.73958,-1.5625 7.40625,-1.5625 C8.36458,-1.5625 9.19271,-1.95052 9.89063,-2.72656 C10.5885,-3.5026 10.9375,-4.5625 10.9375,-5.90625 C10.9375,-7.1875 10.5938,-8.20052 9.90625,-8.94531 C9.21875,-9.6901 8.35417,-10.0625 7.3125,-10.0625 C6.28125,-10.0625 5.40625,-9.6901 4.6875,-8.94531 C3.96875,-8.20052 3.60938,-7.22917 3.60938,-6.03125 M15.0781,-9.17188 C15.0781,-11.3802 15.3047,-13.1536 15.7578,-14.4922 C16.2109,-15.8307 16.8828,-16.8646 17.7734,-17.5938 C18.6641,-18.3229 19.7865,-18.6875 21.1406,-18.6875 C22.1406,-18.6875 23.0182,-18.487 23.7734,-18.0859 C24.5286,-17.6849 25.151,-17.1042 25.6406,-16.3438 C26.1302,-15.5833 26.5156,-14.6615 26.7969,-13.5781 C27.0781,-12.4948 27.2188,-11.026 27.2188,-9.17188 C27.2188,-6.99479 26.9948,-5.23438 26.5469,-3.89063 C26.099,-2.54688 25.4271,-1.51042 24.5313,-0.78125 C23.6354,-0.0520833 22.5052,0.3125 21.1406,0.3125 C19.349,0.3125 17.9427,-0.328125 16.9219,-1.60938 C15.6927,-3.16146 15.0781,-5.68229 15.0781,-9.17188 M17.4219,-9.17188 C17.4219,-6.11979 17.7813,-4.08854 18.5,-3.07813 C19.2188,-2.06771 20.099,-1.5625 21.1406,-1.5625 C22.1927,-1.5625 23.0781,-2.07031 23.7969,-3.08594 C24.5156,-4.10156 24.875,-6.13021 24.875,-9.17188 C24.875,-12.2448 24.5156,-14.2839 23.7969,-15.2891 C23.0781,-16.2943 22.1875,-16.7969 21.125,-16.7969 C20.0729,-16.7969 19.2344,-16.3542 18.6094,-15.4688 C17.8177,-14.3333 17.4219,-12.2344 17.4219,-9.17188 "/>
</g>

<g fill="#d9d9d9" fill-opacity="1" stroke="none" transform="matrix(0.75,0,0,0.75,513.875,504)"
font-family="MS Shell Dlg 2" font-size="8.25" font-weight="400" font-style="normal" 
>
<path vector-effect="none" fill-rule="evenodd" d="M4.59375,-10.0938 C3.64583,-10.4375 2.94271,-10.9323 2.48438,-11.5781 C2.02604,-12.224 1.79688,-12.9948 1.79688,-13.8906 C1.79688,-15.2448 2.28385,-16.3828 3.25781,-17.3047 C4.23177,-18.2266 5.52604,-18.6875 7.14063,-18.6875 C8.76563,-18.6875 10.0755,-18.2161 11.0703,-17.2734 C12.0651,-16.3307 12.5625,-15.1823 12.5625,-13.8281 C12.5625,-12.9635 12.3359,-12.2109 11.8828,-11.5703 C11.4297,-10.9297 10.7396,-10.4375 9.8125,-10.0938 C10.9583,-9.71875 11.8281,-9.11719 12.4219,-8.28906 C13.0156,-7.46094 13.3125,-6.46875 13.3125,-5.3125 C13.3125,-3.72917 12.75,-2.39583 11.625,-1.3125 C10.5,-0.229167 9.02083,0.3125 7.1875,0.3125 C5.35417,0.3125 3.8724,-0.231771 2.74219,-1.32031 C1.61198,-2.40885 1.04688,-3.76563 1.04688,-5.39063 C1.04688,-6.59896 1.35417,-7.61198 1.96875,-8.42969 C2.58333,-9.2474 3.45833,-9.80208 4.59375,-10.0938 M4.14063,-13.9688 C4.14063,-13.0833 4.42448,-12.362 4.99219,-11.8047 C5.5599,-11.2474 6.29688,-10.9688 7.20313,-10.9688 C8.07813,-10.9688 8.79688,-11.2448 9.35938,-11.7969 C9.92188,-12.349 10.2031,-13.0313 10.2031,-13.8438 C10.2031,-14.6771 9.91406,-15.3802 9.33594,-15.9531 C8.75781,-16.526 8.03646,-16.8125 7.17188,-16.8125 C6.29688,-16.8125 5.57292,-16.5339 5,-15.9766 C4.42708,-15.4193 4.14063,-14.75 4.14063,-13.9688 M3.40625,-5.375 C3.40625,-4.71875 3.5599,-4.08594 3.86719,-3.47656 C4.17448,-2.86719 4.63281,-2.39583 5.24219,-2.0625 C5.85156,-1.72917 6.51042,-1.5625 7.21875,-1.5625 C8.30208,-1.5625 9.20052,-1.91406 9.91406,-2.61719 C10.6276,-3.32031 10.9844,-4.21354 10.9844,-5.29688 C10.9844,-6.39063 10.6172,-7.29948 9.88281,-8.02344 C9.14844,-8.7474 8.23438,-9.10938 7.14063,-9.10938 C6.05729,-9.10938 5.16406,-8.7526 4.46094,-8.03906 C3.75781,-7.32552 3.40625,-6.4375 3.40625,-5.375 M15.0781,-9.17188 C15.0781,-11.3802 15.3047,-13.1536 15.7578,-14.4922 C16.2109,-15.8307 16.8828,-16.8646 17.7734,-17.5938 C18.6641,-18.3229 19.7865,-18.6875 21.1406,-18.6875 C22.1406,-18.6875 23.0182,-18.487 23.7734,-18.0859 C24.5286,-17.6849 25.151,-17.1042 25.6406,-16.3438 C26.1302,-15.5833 26.5156,-14.6615 26.7969,-13.5781 C27.0781,-12.4948 27.2188,-11.026 27.2188,-9.17188 C27.2188,-6.99479 26.9948,-5.23438 26.5469,-3.89063 C26.099,-2.54688 25.4271,-1.51042 24.5313,-0.78125 C23.6354,-0.0520833 22.5052,0.3125 21.1406,0.3125 C19.349,0.3125 17.9427,-0.328125 16.9219,-1.60938 C15.6927,-3.16146 15.0781,-5.68229 15.0781,-9.17188 M17.4219,-9.17188 C17.4219,-6.11979 17.7813,-4.08854 18.5,-3.07813 C19.2188,-2.06771 20.099,-1.5625 21.1406,-1.5625 C22.1927,-1.5625 23.0781,-2.07031 23.7969,-3.08594 C24.5156,-4.10156 24.875,-6.13021 24.875,-9.17188 C24.875,-12.2448 24.5156,-14.2839 23.7969,-15.2891 C23.0781,-16.2943 22.1875,-16.7969 21.125,-16.7969 C20.0729,-16.7969 19.2344,-16.3542 18.6094,-15.4688 C17.8177,-14.3333 17.4219,-12.2344 17.4219,-9.17188 "/>
</g>

<g fill="#d9d9d9" fill-opacity="1" stroke="none" transform="matrix(0.75,0,0,0.75,616.125,504)"
font-family="MS Shell Dlg 2" font-size="8.25" font-weight="400" font-style="normal" 
>
<path vector-effect="none" fill-rule="evenodd" d="M9.6875,0 L7.40625,0 L7.40625,-14.5625 C6.85417,-14.0417 6.13021,-13.5182 5.23438,-12.9922 C4.33854,-12.4661 3.53646,-12.0729 2.82813,-11.8125 L2.82813,-14.0156 C4.10938,-14.6198 5.22917,-15.349 6.1875,-16.2031 C7.14583,-17.0573 7.82292,-17.8854 8.21875,-18.6875 L9.6875,-18.6875 L9.6875,0 M15.0781,-9.17188 C15.0781,-11.3802 15.3047,-13.1536 15.7578,-14.4922 C16.2109,-15.8307 16.8828,-16.8646 17.7734,-17.5938 C18.6641,-18.3229 19.7865,-18.6875 21.1406,-18.6875 C22.1406,-18.6875 23.0182,-18.487 23.7734,-18.0859 C24.5286,-17.6849 25.151,-17.1042 25.6406,-16.3438 C26.1302,-15.5833 26.5156,-14.6615 26.7969,-13.5781 C27.0781,-12.4948 27.2188,-11.026 27.2188,-9.17188 C27.2188,-6.99479 26.9948,-5.23438 26.5469,-3.89063 C26.099,-2.54688 25.4271,-1.51042 24.5313,-0.78125 C23.6354,-0.0520833 22.5052,0.3125 21.1406,0.3125 C19.349,0.3125 17.9427,-0.328125 16.9219,-1.60938 C15.6927,-3.16146 15.0781,-5.68229 15.0781,-9.17188 M17.4219,-9.17188 C17.4219,-6.11979 17.7813,-4.08854 18.5,-3.07813 C19.2188,-2.06771 20.099,-1.5625 21.1406,-1.5625 C22.1927,-1.5625 23.0781,-2.07031 23.7969,-3.08594 C24.5156,-4.10156 24.875,-6.13021 24.875,-9.17188 C24.875,-12.2448 24.5156,-14.2839 23.7969,-15.2891 C23.0781,-16.2943 22.1875,-16.7969 21.125,-16.7969 C20.0729,-16.7969 19.2344,-16.3542 18.6094,-15.4688 C17.8177,-14.3333 17.4219,-12.2344 17.4219,-9.17188 M29.0781,-9.17188 C29.0781,-11.3802 29.3047,-13.1536 29.7578,-14.4922 C30.2109,-15.8307 30.8828,-16.8646 31.7734,-17.5938 C32.6641,-18.3229 33.7865,-18.6875 35.1406,-18.6875 C36.1406,-18.6875 37.0182,-18.487 37.7734,-18.0859 C38.5286,-17.6849 39.151,-17.1042 39.6406,-16.3438 C40.1302,-15.5833 40.5156,-14.6615 40.7969,-13.5781 C41.0781,-12.4948 41.2188,-11.026 41.2188,-9.17188 C41.2188,-6.99479 40.9948,-5.23438 40.5469,-3.89063 C40.099,-2.54688 39.4271,-1.51042 38.5313,-0.78125 C37.6354,-0.0520833 36.5052,0.3125 35.1406,0.3125 C33.349,0.3125 31.9427,-0.328125 30.9219,-1.60938 C29.6927,-3.16146 29.0781,-5.68229 29.0781,-9.17188 M31.4219,-9.17188 C31.4219,-6.11979 31.7813,-4.08854 32.5,-3.07813 C33.2188,-2.06771 34.099,-1.5625 35.1406,-1.5625 C36.1927,-1.5625 37.0781,-2.07031 37.7969,-3.08594 C38.5156,-4.10156 38.875,-6.13021 38.875,-9.17188 C38.875,-12.2448 38.5156,-14.2839 37.7969,-15.2891 C37.0781,-16.2943 36.1875,-16.7969 35.125,-16.7969 C34.0729,-16.7969 33.2344,-16.3542 32.6094,-15.4688 C31.8177,-14.3333 31.4219,-12.2344 31.4219,-9.17188 "/>
</g>

<g fill="#d9d9d9" fill-opacity="1" stroke="none" transform="matrix(0.75,0,0,0.75,723.625,504)"
font-family="MS Shell Dlg 2" font-size="8.25" font-weight="400" font-style="normal" 
>
<path vector-effect="none" fill-rule="evenodd" d="M9.6875,0 L7.40625,0 L7.40625,-14.5625 C6.85417,-14.0417 6.13021,-13.5182 5.23438,-12.9922 C4.33854,-12.4661 3.53646,-12.0729 2.82813,-11.8125 L2.82813,-14.0156 C4.10938,-14.6198 5.22917,-15.349 6.1875,-16.2031 C7.14583,-17.0573 7.82292,-17.8854 8.21875,-18.6875 L9.6875,-18.6875 L9.6875,0 M27.0938,-2.20313 L27.0938,0 L14.7813,0 C14.7708,-0.552083 14.8594,-1.08333 15.0469,-1.59375 C15.3698,-2.42708 15.875,-3.25 16.5625,-4.0625 C17.25,-4.875 18.2448,-5.8125 19.5469,-6.875 C21.5677,-8.54167 22.9349,-9.85938 23.6484,-10.8281 C24.362,-11.7969 24.7188,-12.7135 24.7188,-13.5781 C24.7188,-14.4844 24.3932,-15.2474 23.7422,-15.8672 C23.0911,-16.487 22.25,-16.7969 21.2188,-16.7969 C20.1146,-16.7969 19.2318,-16.4661 18.5703,-15.8047 C17.9089,-15.1432 17.5729,-14.2292 17.5625,-13.0625 L15.2188,-13.3125 C15.375,-15.0625 15.9792,-16.3958 17.0313,-17.3125 C18.0833,-18.2292 19.4948,-18.6875 21.2656,-18.6875 C23.0469,-18.6875 24.4583,-18.1927 25.5,-17.2031 C26.5417,-16.2135 27.0625,-14.9844 27.0625,-13.5156 C27.0625,-12.776 26.9115,-12.0469 26.6094,-11.3281 C26.3073,-10.6094 25.8021,-9.85156 25.0938,-9.05469 C24.3854,-8.25781 23.2083,-7.16667 21.5625,-5.78125 C20.1979,-4.625 19.3203,-3.84115 18.9297,-3.42969 C18.5391,-3.01823 18.2188,-2.60938 17.9688,-2.20313 L27.0938,-2.20313 M29.0781,-9.17188 C29.0781,-11.3802 29.3047,-13.1536 29.7578,-14.4922 C30.2109,-15.8307 30.8828,-16.8646 31.7734,-17.5938 C32.6641,-18.3229 33.7865,-18.6875 35.1406,-18.6875 C36.1406,-18.6875 37.0182,-18.487 37.7734,-18.0859 C38.5286,-17.6849 39.151,-17.1042 39.6406,-16.3438 C40.1302,-15.5833 40.5156,-14.6615 40.7969,-13.5781 C41.0781,-12.4948 41.2188,-11.026 41.2188,-9.17188 C41.2188,-6.99479 40.9948,-5.23438 40.5469,-3.89063 C40.099,-2.54688 39.4271,-1.51042 38.5313,-0.78125 C37.6354,-0.0520833 36.5052,0.3125 35.1406,0.3125 C33.349,0.3125 31.9427,-0.328125 30.9219,-1.60938 C29.6927,-3.16146 29.0781,-5.68229 29.0781,-9.17188 M31.4219,-9.17188 C31.4219,-6.11979 31.7813,-4.08854 32.5,-3.07813 C33.2188,-2.06771 34.099,-1.5625 35.1406,-1.5625 C36.1927,-1.5625 37.0781,-2.07031 37.7969,-3.08594 C38.5156,-4.10156 38.875,-6.13021 38.875,-9.17188 C38.875,-12.2448 38.5156,-14.2839 37.7969,-15.2891 C37.0781,-16.2943 36.1875,-16.7969 35.125,-16.7969 C34.0729,-16.7969 33.2344,-16.3542 32.6094,-15.4688 C31.8177,-14.3333 31.4219,-12.2344 31.4219,-9.17188 "/>
</g>

<g fill="#d9d9d9" fill-opacity="1" stroke="none" transform="matrix(0,-0.75,0.75,0,43.8299,290.052)"
font-family="MS Shell Dlg 2" font-size="8.25" font-weight="400" font-style="normal" 
>
<path vector-effect="none" fill-rule="evenodd" d="M3.45313,6.71875 L3.45313,-21.2188 C3.45313,-21.375 3.51042,-21.5026 3.625,-21.6016 C3.73958,-21.7005 3.875,-21.75 4.03125,-21.75 C4.17708,-21.75 4.3099,-21.7005 4.42969,-21.6016 C4.54948,-21.5026 4.60938,-21.375 4.60938,-21.2188 L4.60938,6.71875 C4.60938,6.875 4.54948,7.0026 4.42969,7.10156 C4.3099,7.20052 4.17708,7.25 4.03125,7.25 C3.875,7.25 3.73958,7.20052 3.625,7.10156 C3.51042,7.0026 3.45313,6.875 3.45313,6.71875 "/>
</g>

<g fill="#d9d9d9" fill-opacity="1" stroke="none" transform="matrix(0,-0.75,0.75,0,43.8299,283.941)"
font-family="MS Shell Dlg 2" font-size="8.25" font-weight="400" font-style="normal" 
>
<path vector-effect="none" fill-rule="evenodd" d="M5.17188,0.328125 L3.82813,-18.1563 C3.75521,-18.4375 3.53906,-18.6146 3.17969,-18.6875 C2.82031,-18.7604 2.38021,-18.7969 1.85938,-18.7969 C1.67188,-18.7969 1.57813,-18.9219 1.57813,-19.1719 C1.64063,-19.4219 1.6901,-19.5911 1.72656,-19.6797 C1.76302,-19.7682 1.86979,-19.8125 2.04688,-19.8125 L8.96875,-19.8125 C9.15625,-19.8125 9.25,-19.6823 9.25,-19.4219 C9.17708,-19.0052 9.05208,-18.7969 8.875,-18.7969 C7.33333,-18.7969 6.51563,-18.526 6.42188,-17.9844 L7.45313,-3.34375 L14.7031,-15.9688 L14.5625,-18.1563 C14.4896,-18.4375 14.2734,-18.6146 13.9141,-18.6875 C13.5547,-18.7604 13.1146,-18.7969 12.5938,-18.7969 C12.3958,-18.7969 12.2969,-18.9219 12.2969,-19.1719 C12.3594,-19.4219 12.4089,-19.5911 12.4453,-19.6797 C12.4818,-19.7682 12.5938,-19.8125 12.7813,-19.8125 L19.7031,-19.8125 C19.8906,-19.8125 19.9844,-19.6823 19.9844,-19.4219 C19.974,-19.3802 19.9531,-19.3021 19.9219,-19.1875 C19.8906,-19.0729 19.8516,-18.9792 19.8047,-18.9063 C19.7578,-18.8333 19.6875,-18.7969 19.5938,-18.7969 C18.0417,-18.7969 17.224,-18.526 17.1406,-17.9844 L17.1406,-17.7656 L18.1875,-3.34375 L26.0625,-17.1094 C26.1771,-17.3177 26.2344,-17.5208 26.2344,-17.7188 C26.2344,-18.1146 26.0417,-18.3932 25.6563,-18.5547 C25.2708,-18.7161 24.8385,-18.7969 24.3594,-18.7969 C24.1719,-18.7969 24.0781,-18.9219 24.0781,-19.1719 C24.1094,-19.3281 24.138,-19.4479 24.1641,-19.5313 C24.1901,-19.6146 24.2344,-19.6823 24.2969,-19.7344 C24.3594,-19.7865 24.4479,-19.8125 24.5625,-19.8125 L30.1094,-19.8125 C30.2969,-19.8125 30.3906,-19.6823 30.3906,-19.4219 C30.3802,-19.3802 30.3594,-19.2995 30.3281,-19.1797 C30.2969,-19.0599 30.2578,-18.9661 30.2109,-18.8984 C30.1641,-18.8307 30.099,-18.7969 30.0156,-18.7969 C28.6406,-18.7969 27.5938,-18.1667 26.875,-16.9063 C26.8229,-16.8542 26.7969,-16.8281 26.7969,-16.8281 L16.9688,0.328125 C16.8646,0.536458 16.6979,0.640625 16.4688,0.640625 L16.2344,0.640625 C16.0052,0.640625 15.8906,0.536458 15.8906,0.328125 L14.7813,-14.6094 L6.26563,0.328125 C6.11979,0.536458 5.94792,0.640625 5.75,0.640625 L5.51563,0.640625 C5.28646,0.640625 5.17188,0.536458 5.17188,0.328125 "/>
</g>

<g fill="#d9d9d9" fill-opacity="1" stroke="none" transform="matrix(0,-0.75,0.75,0,43.8299,260.108)"
font-family="MS Shell Dlg 2" font-size="8.25" font-weight="400" font-style="normal" 
>
<path vector-effect="none" fill-rule="evenodd" d="M2.6875,0 L2.6875,-1.01563 C5.10417,-1.01563 6.3125,-1.32292 6.3125,-1.9375 L6.3125,-17.1563 C5.3125,-16.6771 4.04688,-16.4375 2.51563,-16.4375 L2.51563,-17.4531 C4.89063,-17.4531 6.68229,-18.0729 7.89063,-19.3125 L8.29688,-19.3125 C8.35938,-19.3125 8.42188,-19.2865 8.48438,-19.2344 C8.54688,-19.1823 8.57813,-19.125 8.57813,-19.0625 L8.57813,-1.9375 C8.57813,-1.32292 9.78646,-1.01563 12.2031,-1.01563 L12.2031,0 L2.6875,0"/>
</g>

<g fill="#d9d9d9" fill-opacity="1" stroke="none" transform="matrix(0,-0.75,0.75,0,47.1299,249.108)"
font-family="MS Shell Dlg 2" font-size="8.25" font-weight="400" font-style="normal" 
>
<path vector-effect="none" fill-rule="evenodd" d="M1.54688,-0.34375 C1.54688,-0.427083 1.55208,-0.489583 1.5625,-0.53125 L3.0625,-6.48438 C3.15625,-6.85938 3.20313,-7.1875 3.20313,-7.46875 C3.20313,-8.04167 3.01042,-8.32813 2.625,-8.32813 C2.20833,-8.32813 1.89844,-8.07813 1.69531,-7.57813 C1.49219,-7.07813 1.29688,-6.44792 1.10938,-5.6875 C1.10938,-5.64583 1.08854,-5.61458 1.04688,-5.59375 C1.00521,-5.57292 0.96875,-5.5625 0.9375,-5.5625 L0.703125,-5.5625 C0.661458,-5.5625 0.622396,-5.58594 0.585938,-5.63281 C0.549479,-5.67969 0.53125,-5.72396 0.53125,-5.76563 C0.677083,-6.34896 0.817708,-6.84115 0.953125,-7.24219 C1.08854,-7.64323 1.29688,-8.01042 1.57813,-8.34375 C1.85938,-8.67708 2.21354,-8.84375 2.64063,-8.84375 C3.14063,-8.84375 3.58333,-8.6849 3.96875,-8.36719 C4.35417,-8.04948 4.54688,-7.64583 4.54688,-7.15625 C4.94271,-7.67708 5.40625,-8.08854 5.9375,-8.39063 C6.46875,-8.69271 7.03646,-8.84375 7.64063,-8.84375 C8.26563,-8.84375 8.8099,-8.68229 9.27344,-8.35938 C9.73698,-8.03646 9.96875,-7.57813 9.96875,-6.98438 C10.375,-7.56771 10.8542,-8.02344 11.4063,-8.35156 C11.9583,-8.67969 12.5573,-8.84375 13.2031,-8.84375 C13.8906,-8.84375 14.4453,-8.65625 14.8672,-8.28125 C15.2891,-7.90625 15.5,-7.375 15.5,-6.6875 C15.5,-6.13542 15.3776,-5.47396 15.1328,-4.70313 C14.888,-3.93229 14.5833,-3.06771 14.2188,-2.10938 C14.0313,-1.65104 13.9375,-1.25 13.9375,-0.90625 C13.9375,-0.510417 14.0938,-0.3125 14.4063,-0.3125 C14.9271,-0.3125 15.3594,-0.591146 15.7031,-1.14844 C16.0469,-1.70573 16.2917,-2.30729 16.4375,-2.95313 C16.4792,-3.02604 16.5365,-3.0625 16.6094,-3.0625 L16.8438,-3.0625 C16.8958,-3.0625 16.9375,-3.04427 16.9688,-3.00781 C17,-2.97135 17.0156,-2.93229 17.0156,-2.89063 C17.0156,-2.88021 17.0104,-2.85938 17,-2.82813 C16.8229,-2.06771 16.5078,-1.36979 16.0547,-0.734375 C15.6016,-0.0989583 15.0365,0.21875 14.3594,0.21875 C13.8906,0.21875 13.4896,0.0572917 13.1563,-0.265625 C12.8229,-0.588542 12.6563,-0.979167 12.6563,-1.4375 C12.6563,-1.66667 12.7135,-1.92708 12.8281,-2.21875 C13.2031,-3.21875 13.5156,-4.11198 13.7656,-4.89844 C14.0156,-5.6849 14.1406,-6.38021 14.1406,-6.98438 C14.1406,-7.35938 14.0651,-7.67708 13.9141,-7.9375 C13.763,-8.19792 13.5156,-8.32813 13.1719,-8.32813 C12.4427,-8.32813 11.8099,-8.10417 11.2734,-7.65625 C10.737,-7.20833 10.276,-6.61458 9.89063,-5.875 C9.85938,-5.75 9.83854,-5.65104 9.82813,-5.57813 L8.53125,-0.4375 C8.48958,-0.260417 8.38802,-0.106771 8.22656,0.0234375 C8.0651,0.153646 7.89063,0.21875 7.70313,0.21875 C7.54688,0.21875 7.40625,0.166667 7.28125,0.0625 C7.15625,-0.0416667 7.09375,-0.177083 7.09375,-0.34375 C7.09375,-0.427083 7.10417,-0.489583 7.125,-0.53125 L8.40625,-5.625 C8.54167,-6.16667 8.60938,-6.61979 8.60938,-6.98438 C8.60938,-7.35938 8.53125,-7.67708 8.375,-7.9375 C8.21875,-8.19792 7.95833,-8.32813 7.59375,-8.32813 C7.10417,-8.32813 6.65625,-8.21875 6.25,-8 C5.84375,-7.78125 5.48698,-7.49479 5.17969,-7.14063 C4.8724,-6.78646 4.59375,-6.36458 4.34375,-5.875 L2.98438,-0.4375 C2.93229,-0.260417 2.82813,-0.106771 2.67188,0.0234375 C2.51563,0.153646 2.33854,0.21875 2.14063,0.21875 C1.97396,0.21875 1.83333,0.166667 1.71875,0.0625 C1.60417,-0.0416667 1.54688,-0.177083 1.54688,-0.34375 "/>
</g>

<g fill="#d9d9d9" fill-opacity="1" stroke="none" transform="matrix(0,-0.75,0.75,0,47.1299,235.586)"
font-family="MS Shell Dlg 2" font-size="8.25" font-weight="400" font-style="normal" 
>
<path vector-effect="none" fill-rule="evenodd" d="M1.98438,3.60938 C1.98438,3.54688 2.01042,3.48958 2.0625,3.4375 C2.54167,2.97917 2.91406,2.44531 3.17969,1.83594 C3.44531,1.22656 3.57813,0.588542 3.57813,-0.078125 L3.57813,-0.328125 C3.36979,-0.109375 3.10417,0 2.78125,0 C2.47917,0 2.22135,-0.106771 2.00781,-0.320313 C1.79427,-0.533854 1.6875,-0.796875 1.6875,-1.10938 C1.6875,-1.42188 1.79427,-1.68229 2.00781,-1.89063 C2.22135,-2.09896 2.47917,-2.20313 2.78125,-2.20313 C3.26042,-2.20313 3.60156,-1.98177 3.80469,-1.53906 C4.00781,-1.09635 4.10938,-0.609375 4.10938,-0.078125 C4.10938,0.661458 3.96094,1.36458 3.66406,2.03125 C3.36719,2.69792 2.94792,3.30208 2.40625,3.84375 C2.35417,3.86458 2.3125,3.875 2.28125,3.875 C2.20833,3.875 2.14063,3.84635 2.07813,3.78906 C2.01563,3.73177 1.98438,3.67188 1.98438,3.60938 "/>
</g>

<g fill="#d9d9d9" fill-opacity="1" stroke="none" transform="matrix(0,-0.75,0.75,0,47.1299,231.309)"
font-family="MS Shell Dlg 2" font-size="8.25" font-weight="400" font-style="normal" 
>
<path vector-effect="none" fill-rule="evenodd" d="M1.85938,0 L1.85938,-0.703125 C3.52604,-0.703125 4.35938,-0.916667 4.35938,-1.34375 L4.35938,-11.8438 C3.67188,-11.5104 2.79688,-11.3438 1.73438,-11.3438 L1.73438,-12.0469 C3.36979,-12.0469 4.60417,-12.474 5.4375,-13.3281 L5.71875,-13.3281 C5.77083,-13.3281 5.81771,-13.3099 5.85938,-13.2734 C5.90104,-13.237 5.92188,-13.1927 5.92188,-13.1406 L5.92188,-1.34375 C5.92188,-0.916667 6.75521,-0.703125 8.42188,-0.703125 L8.42188,0 L1.85938,0"/>
</g>

<g fill="#d9d9d9" fill-opacity="1" stroke="none" transform="matrix(0,-0.75,0.75,0,47.1299,223.609)"
font-family="MS Shell Dlg 2" font-size="8.25" font-weight="400" font-style="normal" 
>
<path vector-effect="none" fill-rule="evenodd" d="M1.85938,0 L1.85938,-0.703125 C3.52604,-0.703125 4.35938,-0.916667 4.35938,-1.34375 L4.35938,-11.8438 C3.67188,-11.5104 2.79688,-11.3438 1.73438,-11.3438 L1.73438,-12.0469 C3.36979,-12.0469 4.60417,-12.474 5.4375,-13.3281 L5.71875,-13.3281 C5.77083,-13.3281 5.81771,-13.3099 5.85938,-13.2734 C5.90104,-13.237 5.92188,-13.1927 5.92188,-13.1406 L5.92188,-1.34375 C5.92188,-0.916667 6.75521,-0.703125 8.42188,-0.703125 L8.42188,0 L1.85938,0"/>
</g>

<g fill="#d9d9d9" fill-opacity="1" stroke="none" transform="matrix(0,-0.75,0.75,0,43.8299,214.809)"
font-family="MS Shell Dlg 2" font-size="8.25" font-weight="400" font-style="normal" 
>
<path vector-effect="none" fill-rule="evenodd" d="M3.45313,6.71875 L3.45313,-21.2188 C3.45313,-21.375 3.51042,-21.5026 3.625,-21.6016 C3.73958,-21.7005 3.875,-21.75 4.03125,-21.75 C4.17708,-21.75 4.3099,-21.7005 4.42969,-21.6016 C4.54948,-21.5026 4.60938,-21.375 4.60938,-21.2188 L4.60938,6.71875 C4.60938,6.875 4.54948,7.0026 4.42969,7.10156 C4.3099,7.20052 4.17708,7.25 4.03125,7.25 C3.875,7.25 3.73958,7.20052 3.625,7.10156 C3.51042,7.0026 3.45313,6.875 3.45313,6.71875 "/>
</g>

<g fill="#d9d9d9" fill-opacity="1" stroke="#d9d9d9" stroke-opacity="1" stroke-width="0.666667" stroke-linecap="square" stroke-linejoin="round" transform="matrix(0.75,0,0,0.75,0,0)"
font-family="MS Shell Dlg 2" font-size="8.25" font-weight="400" font-style="normal" 
>
<polyline fill="none" vector-effect="none" points="133,640 133,25 " />
<polyline fill="none" vector-effect="none" points="993,640 993,25 " />
<polyline fill="none" vector-effect="none" points="133,640 141.6,640 " />
<polyline fill="none" vector-effect="none" points="984.4,640 993,640 " />
<polyline fill="none" vector-effect="none" points="133,578.581 141.6,578.581 " />
<polyline fill="none" vector-effect="none" points="984.4,578.581 993,578.581 " />
<polyline fill="none" vector-effect="none" points="133,517.162 141.6,517.162 " />
<polyline fill="none" vector-effect="none" points="984.4,517.162 993,517.162 " />
<polyline fill="none" vector-effect="none" points="133,455.743 141.6,455.743 " />
<polyline fill="none" vector-effect="none" points="984.4,455.743 993,455.743 " />
<polyline fill="none" vector-effect="none" points="133,394.324 141.6,394.324 " />
<polyline fill="none" vector-effect="none" points="984.4,394.324 993,394.324 " />
<polyline fill="none" vector-effect="none" points="133,332.905 141.6,332.905 " />
<polyline fill="none" vector-effect="none" points="984.4,332.905 993,332.905 " />
<polyline fill="none" vector-effect="none" points="133,271.486 141.6,271.486 " />
<polyline fill="none" vector-effect="none" points="984.4,271.486 993,271.486 " />
<polyline fill="none" vector-effect="none" points="133,210.067 141.6,210.067 " />
<polyline fill="none" vector-effect="none" points="984.4,210.067 993,210.067 " />
<polyline fill="none" vector-effect="none" points="133,148.648 141.6,148.648 " />
<polyline fill="none" vector-effect="none" points="984.4,148.648 993,148.648 " />
<polyline fill="none" vector-effect="none" points="133,87.2286 141.6,87.2286 " />
<polyline fill="none" vector-effect="none" points="984.4,87.2286 993,87.2286 " />
<polyline fill="none" vector-effect="none" points="133,25.8096 141.6,25.8096 " />
<polyline fill="none" vector-effect="none" points="984.4,25.8096 993,25.8096 " />
</g>

<g fill="#d9d9d9" fill-opacity="1" stroke="none" transform="matrix(0.75,0,0,0.75,83.25,486.75)"
font-family="MS Shell Dlg 2" font-size="8.25" font-weight="400" font-style="normal" 
>
<path vector-effect="none" fill-rule="evenodd" d="M1.07813,-9.17188 C1.07813,-11.3802 1.30469,-13.1536 1.75781,-14.4922 C2.21094,-15.8307 2.88281,-16.8646 3.77344,-17.5938 C4.66406,-18.3229 5.78646,-18.6875 7.14063,-18.6875 C8.14063,-18.6875 9.01823,-18.487 9.77344,-18.0859 C10.5286,-17.6849 11.151,-17.1042 11.6406,-16.3438 C12.1302,-15.5833 12.5156,-14.6615 12.7969,-13.5781 C13.0781,-12.4948 13.2188,-11.026 13.2188,-9.17188 C13.2188,-6.99479 12.9948,-5.23438 12.5469,-3.89063 C12.099,-2.54688 11.4271,-1.51042 10.5313,-0.78125 C9.63542,-0.0520833 8.50521,0.3125 7.14063,0.3125 C5.34896,0.3125 3.94271,-0.328125 2.92188,-1.60938 C1.69271,-3.16146 1.07813,-5.68229 1.07813,-9.17188 M3.42188,-9.17188 C3.42188,-6.11979 3.78125,-4.08854 4.5,-3.07813 C5.21875,-2.06771 6.09896,-1.5625 7.14063,-1.5625 C8.19271,-1.5625 9.07813,-2.07031 9.79688,-3.08594 C10.5156,-4.10156 10.875,-6.13021 10.875,-9.17188 C10.875,-12.2448 10.5156,-14.2839 9.79688,-15.2891 C9.07813,-16.2943 8.1875,-16.7969 7.125,-16.7969 C6.07292,-16.7969 5.23438,-16.3542 4.60938,-15.4688 C3.81771,-14.3333 3.42188,-12.2344 3.42188,-9.17188 "/>
</g>

<g fill="#d9d9d9" fill-opacity="1" stroke="none" transform="matrix(0.75,0,0,0.75,57,440.686)"
font-family="MS Shell Dlg 2" font-size="8.25" font-weight="400" font-style="normal" 
>
<path vector-effect="none" fill-rule="evenodd" d="M1.07813,-9.17188 C1.07813,-11.3802 1.30469,-13.1536 1.75781,-14.4922 C2.21094,-15.8307 2.88281,-16.8646 3.77344,-17.5938 C4.66406,-18.3229 5.78646,-18.6875 7.14063,-18.6875 C8.14063,-18.6875 9.01823,-18.487 9.77344,-18.0859 C10.5286,-17.6849 11.151,-17.1042 11.6406,-16.3438 C12.1302,-15.5833 12.5156,-14.6615 12.7969,-13.5781 C13.0781,-12.4948 13.2188,-11.026 13.2188,-9.17188 C13.2188,-6.99479 12.9948,-5.23438 12.5469,-3.89063 C12.099,-2.54688 11.4271,-1.51042 10.5313,-0.78125 C9.63542,-0.0520833 8.50521,0.3125 7.14063,0.3125 C5.34896,0.3125 3.94271,-0.328125 2.92188,-1.60938 C1.69271,-3.16146 1.07813,-5.68229 1.07813,-9.17188 M3.42188,-9.17188 C3.42188,-6.11979 3.78125,-4.08854 4.5,-3.07813 C5.21875,-2.06771 6.09896,-1.5625 7.14063,-1.5625 C8.19271,-1.5625 9.07813,-2.07031 9.79688,-3.08594 C10.5156,-4.10156 10.875,-6.13021 10.875,-9.17188 C10.875,-12.2448 10.5156,-14.2839 9.79688,-15.2891 C9.07813,-16.2943 8.1875,-16.7969 7.125,-16.7969 C6.07292,-16.7969 5.23438,-16.3542 4.60938,-15.4688 C3.81771,-14.3333 3.42188,-12.2344 3.42188,-9.17188 M16.3594,0 L16.3594,-2.60938 L18.9688,-2.60938 L18.9688,0 L16.3594,0 M22.0781,-9.17188 C22.0781,-11.3802 22.3047,-13.1536 22.7578,-14.4922 C23.2109,-15.8307 23.8828,-16.8646 24.7734,-17.5938 C25.6641,-18.3229 26.7865,-18.6875 28.1406,-18.6875 C29.1406,-18.6875 30.0182,-18.487 30.7734,-18.0859 C31.5286,-17.6849 32.151,-17.1042 32.6406,-16.3438 C33.1302,-15.5833 33.5156,-14.6615 33.7969,-13.5781 C34.0781,-12.4948 34.2188,-11.026 34.2188,-9.17188 C34.2188,-6.99479 33.9948,-5.23438 33.5469,-3.89063 C33.099,-2.54688 32.4271,-1.51042 31.5313,-0.78125 C30.6354,-0.0520833 29.5052,0.3125 28.1406,0.3125 C26.349,0.3125 24.9427,-0.328125 23.9219,-1.60938 C22.6927,-3.16146 22.0781,-5.68229 22.0781,-9.17188 M24.4219,-9.17188 C24.4219,-6.11979 24.7813,-4.08854 25.5,-3.07813 C26.2188,-2.06771 27.099,-1.5625 28.1406,-1.5625 C29.1927,-1.5625 30.0781,-2.07031 30.7969,-3.08594 C31.5156,-4.10156 31.875,-6.13021 31.875,-9.17188 C31.875,-12.2448 31.5156,-14.2839 30.7969,-15.2891 C30.0781,-16.2943 29.1875,-16.7969 28.125,-16.7969 C27.0729,-16.7969 26.2344,-16.3542 25.6094,-15.4688 C24.8177,-14.3333 24.4219,-12.2344 24.4219,-9.17188 M48.0938,-2.20313 L48.0938,0 L35.7813,0 C35.7708,-0.552083 35.8594,-1.08333 36.0469,-1.59375 C36.3698,-2.42708 36.875,-3.25 37.5625,-4.0625 C38.25,-4.875 39.2448,-5.8125 40.5469,-6.875 C42.5677,-8.54167 43.9349,-9.85938 44.6484,-10.8281 C45.362,-11.7969 45.7188,-12.7135 45.7188,-13.5781 C45.7188,-14.4844 45.3932,-15.2474 44.7422,-15.8672 C44.0911,-16.487 43.25,-16.7969 42.2188,-16.7969 C41.1146,-16.7969 40.2318,-16.4661 39.5703,-15.8047 C38.9089,-15.1432 38.5729,-14.2292 38.5625,-13.0625 L36.2188,-13.3125 C36.375,-15.0625 36.9792,-16.3958 38.0313,-17.3125 C39.0833,-18.2292 40.4948,-18.6875 42.2656,-18.6875 C44.0469,-18.6875 45.4583,-18.1927 46.5,-17.2031 C47.5417,-16.2135 48.0625,-14.9844 48.0625,-13.5156 C48.0625,-12.776 47.9115,-12.0469 47.6094,-11.3281 C47.3073,-10.6094 46.8021,-9.85156 46.0938,-9.05469 C45.3854,-8.25781 44.2083,-7.16667 42.5625,-5.78125 C41.1979,-4.625 40.3203,-3.84115 39.9297,-3.42969 C39.5391,-3.01823 39.2188,-2.60938 38.9688,-2.20313 L48.0938,-2.20313"/>
</g>

<g fill="#d9d9d9" fill-opacity="1" stroke="none" transform="matrix(0.75,0,0,0.75,57,394.621)"
font-family="MS Shell Dlg 2" font-size="8.25" font-weight="400" font-style="normal" 
>
<path vector-effect="none" fill-rule="evenodd" d="M1.07813,-9.17188 C1.07813,-11.3802 1.30469,-13.1536 1.75781,-14.4922 C2.21094,-15.8307 2.88281,-16.8646 3.77344,-17.5938 C4.66406,-18.3229 5.78646,-18.6875 7.14063,-18.6875 C8.14063,-18.6875 9.01823,-18.487 9.77344,-18.0859 C10.5286,-17.6849 11.151,-17.1042 11.6406,-16.3438 C12.1302,-15.5833 12.5156,-14.6615 12.7969,-13.5781 C13.0781,-12.4948 13.2188,-11.026 13.2188,-9.17188 C13.2188,-6.99479 12.9948,-5.23438 12.5469,-3.89063 C12.099,-2.54688 11.4271,-1.51042 10.5313,-0.78125 C9.63542,-0.0520833 8.50521,0.3125 7.14063,0.3125 C5.34896,0.3125 3.94271,-0.328125 2.92188,-1.60938 C1.69271,-3.16146 1.07813,-5.68229 1.07813,-9.17188 M3.42188,-9.17188 C3.42188,-6.11979 3.78125,-4.08854 4.5,-3.07813 C5.21875,-2.06771 6.09896,-1.5625 7.14063,-1.5625 C8.19271,-1.5625 9.07813,-2.07031 9.79688,-3.08594 C10.5156,-4.10156 10.875,-6.13021 10.875,-9.17188 C10.875,-12.2448 10.5156,-14.2839 9.79688,-15.2891 C9.07813,-16.2943 8.1875,-16.7969 7.125,-16.7969 C6.07292,-16.7969 5.23438,-16.3542 4.60938,-15.4688 C3.81771,-14.3333 3.42188,-12.2344 3.42188,-9.17188 M16.3594,0 L16.3594,-2.60938 L18.9688,-2.60938 L18.9688,0 L16.3594,0 M22.0781,-9.17188 C22.0781,-11.3802 22.3047,-13.1536 22.7578,-14.4922 C23.2109,-15.8307 23.8828,-16.8646 24.7734,-17.5938 C25.6641,-18.3229 26.7865,-18.6875 28.1406,-18.6875 C29.1406,-18.6875 30.0182,-18.487 30.7734,-18.0859 C31.5286,-17.6849 32.151,-17.1042 32.6406,-16.3438 C33.1302,-15.5833 33.5156,-14.6615 33.7969,-13.5781 C34.0781,-12.4948 34.2188,-11.026 34.2188,-9.17188 C34.2188,-6.99479 33.9948,-5.23438 33.5469,-3.89063 C33.099,-2.54688 32.4271,-1.51042 31.5313,-0.78125 C30.6354,-0.0520833 29.5052,0.3125 28.1406,0.3125 C26.349,0.3125 24.9427,-0.328125 23.9219,-1.60938 C22.6927,-3.16146 22.0781,-5.68229 22.0781,-9.17188 M24.4219,-9.17188 C24.4219,-6.11979 24.7813,-4.08854 25.5,-3.07813 C26.2188,-2.06771 27.099,-1.5625 28.1406,-1.5625 C29.1927,-1.5625 30.0781,-2.07031 30.7969,-3.08594 C31.5156,-4.10156 31.875,-6.13021 31.875,-9.17188 C31.875,-12.2448 31.5156,-14.2839 30.7969,-15.2891 C30.0781,-16.2943 29.1875,-16.7969 28.125,-16.7969 C27.0729,-16.7969 26.2344,-16.3542 25.6094,-15.4688 C24.8177,-14.3333 24.4219,-12.2344 24.4219,-9.17188 M43.4063,0 L43.4063,-4.45313 L35.3281,-4.45313 L35.3281,-6.54688 L43.8281,-18.6094 L45.6875,-18.6094 L45.6875,-6.54688 L48.2031,-6.54688 L48.2031,-4.45313 L45.6875,-4.45313 L45.6875,0 L43.4063,0 M43.4063,-6.54688 L43.4063,-14.9375 L37.5781,-6.54688 L43.4063,-6.54688"/>
</g>

<g fill="#d9d9d9" fill-opacity="1" stroke="none" transform="matrix(0.75,0,0,0.75,57,348.557)"
font-family="MS Shell Dlg 2" font-size="8.25" font-weight="400" font-style="normal" 
>
<path vector-effect="none" fill-rule="evenodd" d="M1.07813,-9.17188 C1.07813,-11.3802 1.30469,-13.1536 1.75781,-14.4922 C2.21094,-15.8307 2.88281,-16.8646 3.77344,-17.5938 C4.66406,-18.3229 5.78646,-18.6875 7.14063,-18.6875 C8.14063,-18.6875 9.01823,-18.487 9.77344,-18.0859 C10.5286,-17.6849 11.151,-17.1042 11.6406,-16.3438 C12.1302,-15.5833 12.5156,-14.6615 12.7969,-13.5781 C13.0781,-12.4948 13.2188,-11.026 13.2188,-9.17188 C13.2188,-6.99479 12.9948,-5.23438 12.5469,-3.89063 C12.099,-2.54688 11.4271,-1.51042 10.5313,-0.78125 C9.63542,-0.0520833 8.50521,0.3125 7.14063,0.3125 C5.34896,0.3125 3.94271,-0.328125 2.92188,-1.60938 C1.69271,-3.16146 1.07813,-5.68229 1.07813,-9.17188 M3.42188,-9.17188 C3.42188,-6.11979 3.78125,-4.08854 4.5,-3.07813 C5.21875,-2.06771 6.09896,-1.5625 7.14063,-1.5625 C8.19271,-1.5625 9.07813,-2.07031 9.79688,-3.08594 C10.5156,-4.10156 10.875,-6.13021 10.875,-9.17188 C10.875,-12.2448 10.5156,-14.2839 9.79688,-15.2891 C9.07813,-16.2943 8.1875,-16.7969 7.125,-16.7969 C6.07292,-16.7969 5.23438,-16.3542 4.60938,-15.4688 C3.81771,-14.3333 3.42188,-12.2344 3.42188,-9.17188 M16.3594,0 L16.3594,-2.60938 L18.9688,-2.60938 L18.9688,0 L16.3594,0 M22.0781,-9.17188 C22.0781,-11.3802 22.3047,-13.1536 22.7578,-14.4922 C23.2109,-15.8307 23.8828,-16.8646 24.7734,-17.5938 C25.6641,-18.3229 26.7865,-18.6875 28.1406,-18.6875 C29.1406,-18.6875 30.0182,-18.487 30.7734,-18.0859 C31.5286,-17.6849 32.151,-17.1042 32.6406,-16.3438 C33.1302,-15.5833 33.5156,-14.6615 33.7969,-13.5781 C34.0781,-12.4948 34.2188,-11.026 34.2188,-9.17188 C34.2188,-6.99479 33.9948,-5.23438 33.5469,-3.89063 C33.099,-2.54688 32.4271,-1.51042 31.5313,-0.78125 C30.6354,-0.0520833 29.5052,0.3125 28.1406,0.3125 C26.349,0.3125 24.9427,-0.328125 23.9219,-1.60938 C22.6927,-3.16146 22.0781,-5.68229 22.0781,-9.17188 M24.4219,-9.17188 C24.4219,-6.11979 24.7813,-4.08854 25.5,-3.07813 C26.2188,-2.06771 27.099,-1.5625 28.1406,-1.5625 C29.1927,-1.5625 30.0781,-2.07031 30.7969,-3.08594 C31.5156,-4.10156 31.875,-6.13021 31.875,-9.17188 C31.875,-12.2448 31.5156,-14.2839 30.7969,-15.2891 C30.0781,-16.2943 29.1875,-16.7969 28.125,-16.7969 C27.0729,-16.7969 26.2344,-16.3542 25.6094,-15.4688 C24.8177,-14.3333 24.4219,-12.2344 24.4219,-9.17188 M47.9375,-14.0469 L45.6719,-13.875 C45.4635,-14.7708 45.1719,-15.4219 44.7969,-15.8281 C44.1823,-16.4844 43.4219,-16.8125 42.5156,-16.8125 C41.7865,-16.8125 41.1458,-16.6094 40.5938,-16.2031 C39.875,-15.6719 39.3099,-14.9036 38.8984,-13.8984 C38.487,-12.8932 38.2708,-11.4583 38.25,-9.59375 C38.8021,-10.4375 39.4766,-11.0625 40.2734,-11.4688 C41.0703,-11.875 41.901,-12.0781 42.7656,-12.0781 C44.2969,-12.0781 45.5964,-11.5156 46.6641,-10.3906 C47.7318,-9.26563 48.2656,-7.81771 48.2656,-6.04688 C48.2656,-4.88021 48.013,-3.79427 47.5078,-2.78906 C47.0026,-1.78385 46.3099,-1.01563 45.4297,-0.484375 C44.5495,0.046875 43.5521,0.3125 42.4375,0.3125 C40.5313,0.3125 38.9792,-0.388021 37.7813,-1.78906 C36.5833,-3.1901 35.9844,-5.49479 35.9844,-8.70313 C35.9844,-12.3073 36.6458,-14.9271 37.9688,-16.5625 C39.125,-17.9792 40.6875,-18.6875 42.6563,-18.6875 C44.125,-18.6875 45.3255,-18.276 46.2578,-17.4531 C47.1901,-16.6302 47.75,-15.4948 47.9375,-14.0469 M38.6094,-6.03125 C38.6094,-5.23958 38.776,-4.48438 39.1094,-3.76563 C39.4427,-3.04688 39.9089,-2.5 40.5078,-2.125 C41.1068,-1.75 41.7396,-1.5625 42.4063,-1.5625 C43.3646,-1.5625 44.1927,-1.95052 44.8906,-2.72656 C45.5885,-3.5026 45.9375,-4.5625 45.9375,-5.90625 C45.9375,-7.1875 45.5938,-8.20052 44.9063,-8.94531 C44.2188,-9.6901 43.3542,-10.0625 42.3125,-10.0625 C41.2813,-10.0625 40.4063,-9.6901 39.6875,-8.94531 C38.9688,-8.20052 38.6094,-7.22917 38.6094,-6.03125 "/>
</g>

<g fill="#d9d9d9" fill-opacity="1" stroke="none" transform="matrix(0.75,0,0,0.75,57,302.493)"
font-family="MS Shell Dlg 2" font-size="8.25" font-weight="400" font-style="normal" 
>
<path vector-effect="none" fill-rule="evenodd" d="M1.07813,-9.17188 C1.07813,-11.3802 1.30469,-13.1536 1.75781,-14.4922 C2.21094,-15.8307 2.88281,-16.8646 3.77344,-17.5938 C4.66406,-18.3229 5.78646,-18.6875 7.14063,-18.6875 C8.14063,-18.6875 9.01823,-18.487 9.77344,-18.0859 C10.5286,-17.6849 11.151,-17.1042 11.6406,-16.3438 C12.1302,-15.5833 12.5156,-14.6615 12.7969,-13.5781 C13.0781,-12.4948 13.2188,-11.026 13.2188,-9.17188 C13.2188,-6.99479 12.9948,-5.23438 12.5469,-3.89063 C12.099,-2.54688 11.4271,-1.51042 10.5313,-0.78125 C9.63542,-0.0520833 8.50521,0.3125 7.14063,0.3125 C5.34896,0.3125 3.94271,-0.328125 2.92188,-1.60938 C1.69271,-3.16146 1.07813,-5.68229 1.07813,-9.17188 M3.42188,-9.17188 C3.42188,-6.11979 3.78125,-4.08854 4.5,-3.07813 C5.21875,-2.06771 6.09896,-1.5625 7.14063,-1.5625 C8.19271,-1.5625 9.07813,-2.07031 9.79688,-3.08594 C10.5156,-4.10156 10.875,-6.13021 10.875,-9.17188 C10.875,-12.2448 10.5156,-14.2839 9.79688,-15.2891 C9.07813,-16.2943 8.1875,-16.7969 7.125,-16.7969 C6.07292,-16.7969 5.23438,-16.3542 4.60938,-15.4688 C3.81771,-14.3333 3.42188,-12.2344 3.42188,-9.17188 M16.3594,0 L16.3594,-2.60938 L18.9688,-2.60938 L18.9688,0 L16.3594,0 M22.0781,-9.17188 C22.0781,-11.3802 22.3047,-13.1536 22.7578,-14.4922 C23.2109,-15.8307 23.8828,-16.8646 24.7734,-17.5938 C25.6641,-18.3229 26.7865,-18.6875 28.1406,-18.6875 C29.1406,-18.6875 30.0182,-18.487 30.7734,-18.0859 C31.5286,-17.6849 32.151,-17.1042 32.6406,-16.3438 C33.1302,-15.5833 33.5156,-14.6615 33.7969,-13.5781 C34.0781,-12.4948 34.2188,-11.026 34.2188,-9.17188 C34.2188,-6.99479 33.9948,-5.23438 33.5469,-3.89063 C33.099,-2.54688 32.4271,-1.51042 31.5313,-0.78125 C30.6354,-0.0520833 29.5052,0.3125 28.1406,0.3125 C26.349,0.3125 24.9427,-0.328125 23.9219,-1.60938 C22.6927,-3.16146 22.0781,-5.68229 22.0781,-9.17188 M24.4219,-9.17188 C24.4219,-6.11979 24.7813,-4.08854 25.5,-3.07813 C26.2188,-2.06771 27.099,-1.5625 28.1406,-1.5625 C29.1927,-1.5625 30.0781,-2.07031 30.7969,-3.08594 C31.5156,-4.10156 31.875,-6.13021 31.875,-9.17188 C31.875,-12.2448 31.5156,-14.2839 30.7969,-15.2891 C30.0781,-16.2943 29.1875,-16.7969 28.125,-16.7969 C27.0729,-16.7969 26.2344,-16.3542 25.6094,-15.4688 C24.8177,-14.3333 24.4219,-12.2344 24.4219,-9.17188 M39.5938,-10.0938 C38.6458,-10.4375 37.9427,-10.9323 37.4844,-11.5781 C37.026,-12.224 36.7969,-12.9948 36.7969,-13.8906 C36.7969,-15.2448 37.2839,-16.3828 38.2578,-17.3047 C39.2318,-18.2266 40.526,-18.6875 42.1406,-18.6875 C43.7656,-18.6875 45.0755,-18.2161 46.0703,-17.2734 C47.0651,-16.3307 47.5625,-15.1823 47.5625,-13.8281 C47.5625,-12.9635 47.3359,-12.2109 46.8828,-11.5703 C46.4297,-10.9297 45.7396,-10.4375 44.8125,-10.0938 C45.9583,-9.71875 46.8281,-9.11719 47.4219,-8.28906 C48.0156,-7.46094 48.3125,-6.46875 48.3125,-5.3125 C48.3125,-3.72917 47.75,-2.39583 46.625,-1.3125 C45.5,-0.229167 44.0208,0.3125 42.1875,0.3125 C40.3542,0.3125 38.8724,-0.231771 37.7422,-1.32031 C36.612,-2.40885 36.0469,-3.76563 36.0469,-5.39063 C36.0469,-6.59896 36.3542,-7.61198 36.9688,-8.42969 C37.5833,-9.2474 38.4583,-9.80208 39.5938,-10.0938 M39.1406,-13.9688 C39.1406,-13.0833 39.4245,-12.362 39.9922,-11.8047 C40.5599,-11.2474 41.2969,-10.9688 42.2031,-10.9688 C43.0781,-10.9688 43.7969,-11.2448 44.3594,-11.7969 C44.9219,-12.349 45.2031,-13.0313 45.2031,-13.8438 C45.2031,-14.6771 44.9141,-15.3802 44.3359,-15.9531 C43.7578,-16.526 43.0365,-16.8125 42.1719,-16.8125 C41.2969,-16.8125 40.5729,-16.5339 40,-15.9766 C39.4271,-15.4193 39.1406,-14.75 39.1406,-13.9688 M38.4063,-5.375 C38.4063,-4.71875 38.5599,-4.08594 38.8672,-3.47656 C39.1745,-2.86719 39.6328,-2.39583 40.2422,-2.0625 C40.8516,-1.72917 41.5104,-1.5625 42.2188,-1.5625 C43.3021,-1.5625 44.2005,-1.91406 44.9141,-2.61719 C45.6276,-3.32031 45.9844,-4.21354 45.9844,-5.29688 C45.9844,-6.39063 45.6172,-7.29948 44.8828,-8.02344 C44.1484,-8.7474 43.2344,-9.10938 42.1406,-9.10938 C41.0573,-9.10938 40.1641,-8.7526 39.4609,-8.03906 C38.7578,-7.32552 38.4063,-6.4375 38.4063,-5.375 "/>
</g>

<g fill="#d9d9d9" fill-opacity="1" stroke="none" transform="matrix(0.75,0,0,0.75,67.5,256.429)"
font-family="MS Shell Dlg 2" font-size="8.25" font-weight="400" font-style="normal" 
>
<path vector-effect="none" fill-rule="evenodd" d="M1.07813,-9.17188 C1.07813,-11.3802 1.30469,-13.1536 1.75781,-14.4922 C2.21094,-15.8307 2.88281,-16.8646 3.77344,-17.5938 C4.66406,-18.3229 5.78646,-18.6875 7.14063,-18.6875 C8.14063,-18.6875 9.01823,-18.487 9.77344,-18.0859 C10.5286,-17.6849 11.151,-17.1042 11.6406,-16.3438 C12.1302,-15.5833 12.5156,-14.6615 12.7969,-13.5781 C13.0781,-12.4948 13.2188,-11.026 13.2188,-9.17188 C13.2188,-6.99479 12.9948,-5.23438 12.5469,-3.89063 C12.099,-2.54688 11.4271,-1.51042 10.5313,-0.78125 C9.63542,-0.0520833 8.50521,0.3125 7.14063,0.3125 C5.34896,0.3125 3.94271,-0.328125 2.92188,-1.60938 C1.69271,-3.16146 1.07813,-5.68229 1.07813,-9.17188 M3.42188,-9.17188 C3.42188,-6.11979 3.78125,-4.08854 4.5,-3.07813 C5.21875,-2.06771 6.09896,-1.5625 7.14063,-1.5625 C8.19271,-1.5625 9.07813,-2.07031 9.79688,-3.08594 C10.5156,-4.10156 10.875,-6.13021 10.875,-9.17188 C10.875,-12.2448 10.5156,-14.2839 9.79688,-15.2891 C9.07813,-16.2943 8.1875,-16.7969 7.125,-16.7969 C6.07292,-16.7969 5.23438,-16.3542 4.60938,-15.4688 C3.81771,-14.3333 3.42188,-12.2344 3.42188,-9.17188 M16.3594,0 L16.3594,-2.60938 L18.9688,-2.60938 L18.9688,0 L16.3594,0 M30.6875,0 L28.4063,0 L28.4063,-14.5625 C27.8542,-14.0417 27.1302,-13.5182 26.2344,-12.9922 C25.3385,-12.4661 24.5365,-12.0729 23.8281,-11.8125 L23.8281,-14.0156 C25.1094,-14.6198 26.2292,-15.349 27.1875,-16.2031 C28.1458,-17.0573 28.8229,-17.8854 29.2188,-18.6875 L30.6875,-18.6875 L30.6875,0"/>
</g>

<g fill="#d9d9d9" fill-opacity="1" stroke="none" transform="matrix(0.75,0,0,0.75,57,210.364)"
font-family="MS Shell Dlg 2" font-size="8.25" font-weight="400" font-style="normal" 
>
<path vector-effect="none" fill-rule="evenodd" d="M1.07813,-9.17188 C1.07813,-11.3802 1.30469,-13.1536 1.75781,-14.4922 C2.21094,-15.8307 2.88281,-16.8646 3.77344,-17.5938 C4.66406,-18.3229 5.78646,-18.6875 7.14063,-18.6875 C8.14063,-18.6875 9.01823,-18.487 9.77344,-18.0859 C10.5286,-17.6849 11.151,-17.1042 11.6406,-16.3438 C12.1302,-15.5833 12.5156,-14.6615 12.7969,-13.5781 C13.0781,-12.4948 13.2188,-11.026 13.2188,-9.17188 C13.2188,-6.99479 12.9948,-5.23438 12.5469,-3.89063 C12.099,-2.54688 11.4271,-1.51042 10.5313,-0.78125 C9.63542,-0.0520833 8.50521,0.3125 7.14063,0.3125 C5.34896,0.3125 3.94271,-0.328125 2.92188,-1.60938 C1.69271,-3.16146 1.07813,-5.68229 1.07813,-9.17188 M3.42188,-9.17188 C3.42188,-6.11979 3.78125,-4.08854 4.5,-3.07813 C5.21875,-2.06771 6.09896,-1.5625 7.14063,-1.5625 C8.19271,-1.5625 9.07813,-2.07031 9.79688,-3.08594 C10.5156,-4.10156 10.875,-6.13021 10.875,-9.17188 C10.875,-12.2448 10.5156,-14.2839 9.79688,-15.2891 C9.07813,-16.2943 8.1875,-16.7969 7.125,-16.7969 C6.07292,-16.7969 5.23438,-16.3542 4.60938,-15.4688 C3.81771,-14.3333 3.42188,-12.2344 3.42188,-9.17188 M16.3594,0 L16.3594,-2.60938 L18.9688,-2.60938 L18.9688,0 L16.3594,0 M30.6875,0 L28.4063,0 L28.4063,-14.5625 C27.8542,-14.0417 27.1302,-13.5182 26.2344,-12.9922 C25.3385,-12.4661 24.5365,-12.0729 23.8281,-11.8125 L23.8281,-14.0156 C25.1094,-14.6198 26.2292,-15.349 27.1875,-16.2031 C28.1458,-17.0573 28.8229,-17.8854 29.2188,-18.6875 L30.6875,-18.6875 L30.6875,0 M48.0938,-2.20313 L48.0938,0 L35.7813,0 C35.7708,-0.552083 35.8594,-1.08333 36.0469,-1.59375 C36.3698,-2.42708 36.875,-3.25 37.5625,-4.0625 C38.25,-4.875 39.2448,-5.8125 40.5469,-6.875 C42.5677,-8.54167 43.9349,-9.85938 44.6484,-10.8281 C45.362,-11.7969 45.7188,-12.7135 45.7188,-13.5781 C45.7188,-14.4844 45.3932,-15.2474 44.7422,-15.8672 C44.0911,-16.487 43.25,-16.7969 42.2188,-16.7969 C41.1146,-16.7969 40.2318,-16.4661 39.5703,-15.8047 C38.9089,-15.1432 38.5729,-14.2292 38.5625,-13.0625 L36.2188,-13.3125 C36.375,-15.0625 36.9792,-16.3958 38.0313,-17.3125 C39.0833,-18.2292 40.4948,-18.6875 42.2656,-18.6875 C44.0469,-18.6875 45.4583,-18.1927 46.5,-17.2031 C47.5417,-16.2135 48.0625,-14.9844 48.0625,-13.5156 C48.0625,-12.776 47.9115,-12.0469 47.6094,-11.3281 C47.3073,-10.6094 46.8021,-9.85156 46.0938,-9.05469 C45.3854,-8.25781 44.2083,-7.16667 42.5625,-5.78125 C41.1979,-4.625 40.3203,-3.84115 39.9297,-3.42969 C39.5391,-3.01823 39.2188,-2.60938 38.9688,-2.20313 L48.0938,-2.20313"/>
</g>

<g fill="#d9d9d9" fill-opacity="1" stroke="none" transform="matrix(0.75,0,0,0.75,57,164.3)"
font-family="MS Shell Dlg 2" font-size="8.25" font-weight="400" font-style="normal" 
>
<path vector-effect="none" fill-rule="evenodd" d="M1.07813,-9.17188 C1.07813,-11.3802 1.30469,-13.1536 1.75781,-14.4922 C2.21094,-15.8307 2.88281,-16.8646 3.77344,-17.5938 C4.66406,-18.3229 5.78646,-18.6875 7.14063,-18.6875 C8.14063,-18.6875 9.01823,-18.487 9.77344,-18.0859 C10.5286,-17.6849 11.151,-17.1042 11.6406,-16.3438 C12.1302,-15.5833 12.5156,-14.6615 12.7969,-13.5781 C13.0781,-12.4948 13.2188,-11.026 13.2188,-9.17188 C13.2188,-6.99479 12.9948,-5.23438 12.5469,-3.89063 C12.099,-2.54688 11.4271,-1.51042 10.5313,-0.78125 C9.63542,-0.0520833 8.50521,0.3125 7.14063,0.3125 C5.34896,0.3125 3.94271,-0.328125 2.92188,-1.60938 C1.69271,-3.16146 1.07813,-5.68229 1.07813,-9.17188 M3.42188,-9.17188 C3.42188,-6.11979 3.78125,-4.08854 4.5,-3.07813 C5.21875,-2.06771 6.09896,-1.5625 7.14063,-1.5625 C8.19271,-1.5625 9.07813,-2.07031 9.79688,-3.08594 C10.5156,-4.10156 10.875,-6.13021 10.875,-9.17188 C10.875,-12.2448 10.5156,-14.2839 9.79688,-15.2891 C9.07813,-16.2943 8.1875,-16.7969 7.125,-16.7969 C6.07292,-16.7969 5.23438,-16.3542 4.60938,-15.4688 C3.81771,-14.3333 3.42188,-12.2344 3.42188,-9.17188 M16.3594,0 L16.3594,-2.60938 L18.9688,-2.60938 L18.9688,0 L16.3594,0 M30.6875,0 L28.4063,0 L28.4063,-14.5625 C27.8542,-14.0417 27.1302,-13.5182 26.2344,-12.9922 C25.3385,-12.4661 24.5365,-12.0729 23.8281,-11.8125 L23.8281,-14.0156 C25.1094,-14.6198 26.2292,-15.349 27.1875,-16.2031 C28.1458,-17.0573 28.8229,-17.8854 29.2188,-18.6875 L30.6875,-18.6875 L30.6875,0 M43.4063,0 L43.4063,-4.45313 L35.3281,-4.45313 L35.3281,-6.54688 L43.8281,-18.6094 L45.6875,-18.6094 L45.6875,-6.54688 L48.2031,-6.54688 L48.2031,-4.45313 L45.6875,-4.45313 L45.6875,0 L43.4063,0 M43.4063,-6.54688 L43.4063,-14.9375 L37.5781,-6.54688 L43.4063,-6.54688"/>
</g>

<g fill="#d9d9d9" fill-opacity="1" stroke="none" transform="matrix(0.75,0,0,0.75,57,118.236)"
font-family="MS Shell Dlg 2" font-size="8.25" font-weight="400" font-style="normal" 
>
<path vector-effect="none" fill-rule="evenodd" d="M1.07813,-9.17188 C1.07813,-11.3802 1.30469,-13.1536 1.75781,-14.4922 C2.21094,-15.8307 2.88281,-16.8646 3.77344,-17.5938 C4.66406,-18.3229 5.78646,-18.6875 7.14063,-18.6875 C8.14063,-18.6875 9.01823,-18.487 9.77344,-18.0859 C10.5286,-17.6849 11.151,-17.1042 11.6406,-16.3438 C12.1302,-15.5833 12.5156,-14.6615 12.7969,-13.5781 C13.0781,-12.4948 13.2188,-11.026 13.2188,-9.17188 C13.2188,-6.99479 12.9948,-5.23438 12.5469,-3.89063 C12.099,-2.54688 11.4271,-1.51042 10.5313,-0.78125 C9.63542,-0.0520833 8.50521,0.3125 7.14063,0.3125 C5.34896,0.3125 3.94271,-0.328125 2.92188,-1.60938 C1.69271,-3.16146 1.07813,-5.68229 1.07813,-9.17188 M3.42188,-9.17188 C3.42188,-6.11979 3.78125,-4.08854 4.5,-3.07813 C5.21875,-2.06771 6.09896,-1.5625 7.14063,-1.5625 C8.19271,-1.5625 9.07813,-2.07031 9.79688,-3.08594 C10.5156,-4.10156 10.875,-6.13021 10.875,-9.17188 C10.875,-12.2448 10.5156,-14.2839 9.79688,-15.2891 C9.07813,-16.2943 8.1875,-16.7969 7.125,-16.7969 C6.07292,-16.7969 5.23438,-16.3542 4.60938,-15.4688 C3.81771,-14.3333 3.42188,-12.2344 3.42188,-9.17188 M16.3594,0 L16.3594,-2.60938 L18.9688,-2.60938 L18.9688,0 L16.3594,0 M30.6875,0 L28.4063,0 L28.4063,-14.5625 C27.8542,-14.0417 27.1302,-13.5182 26.2344,-12.9922 C25.3385,-12.4661 24.5365,-12.0729 23.8281,-11.8125 L23.8281,-14.0156 C25.1094,-14.6198 26.2292,-15.349 27.1875,-16.2031 C28.1458,-17.0573 28.8229,-17.8854 29.2188,-18.6875 L30.6875,-18.6875 L30.6875,0 M47.9375,-14.0469 L45.6719,-13.875 C45.4635,-14.7708 45.1719,-15.4219 44.7969,-15.8281 C44.1823,-16.4844 43.4219,-16.8125 42.5156,-16.8125 C41.7865,-16.8125 41.1458,-16.6094 40.5938,-16.2031 C39.875,-15.6719 39.3099,-14.9036 38.8984,-13.8984 C38.487,-12.8932 38.2708,-11.4583 38.25,-9.59375 C38.8021,-10.4375 39.4766,-11.0625 40.2734,-11.4688 C41.0703,-11.875 41.901,-12.0781 42.7656,-12.0781 C44.2969,-12.0781 45.5964,-11.5156 46.6641,-10.3906 C47.7318,-9.26563 48.2656,-7.81771 48.2656,-6.04688 C48.2656,-4.88021 48.013,-3.79427 47.5078,-2.78906 C47.0026,-1.78385 46.3099,-1.01563 45.4297,-0.484375 C44.5495,0.046875 43.5521,0.3125 42.4375,0.3125 C40.5313,0.3125 38.9792,-0.388021 37.7813,-1.78906 C36.5833,-3.1901 35.9844,-5.49479 35.9844,-8.70313 C35.9844,-12.3073 36.6458,-14.9271 37.9688,-16.5625 C39.125,-17.9792 40.6875,-18.6875 42.6563,-18.6875 C44.125,-18.6875 45.3255,-18.276 46.2578,-17.4531 C47.1901,-16.6302 47.75,-15.4948 47.9375,-14.0469 M38.6094,-6.03125 C38.6094,-5.23958 38.776,-4.48438 39.1094,-3.76563 C39.4427,-3.04688 39.9089,-2.5 40.5078,-2.125 C41.1068,-1.75 41.7396,-1.5625 42.4063,-1.5625 C43.3646,-1.5625 44.1927,-1.95052 44.8906,-2.72656 C45.5885,-3.5026 45.9375,-4.5625 45.9375,-5.90625 C45.9375,-7.1875 45.5938,-8.20052 44.9063,-8.94531 C44.2188,-9.6901 43.3542,-10.0625 42.3125,-10.0625 C41.2813,-10.0625 40.4063,-9.6901 39.6875,-8.94531 C38.9688,-8.20052 38.6094,-7.22917 38.6094,-6.03125 "/>
</g>

<g fill="#d9d9d9" fill-opacity="1" stroke="none" transform="matrix(0.75,0,0,0.75,57,72.1715)"
font-family="MS Shell Dlg 2" font-size="8.25" font-weight="400" font-style="normal" 
>
<path vector-effect="none" fill-rule="evenodd" d="M1.07813,-9.17188 C1.07813,-11.3802 1.30469,-13.1536 1.75781,-14.4922 C2.21094,-15.8307 2.88281,-16.8646 3.77344,-17.5938 C4.66406,-18.3229 5.78646,-18.6875 7.14063,-18.6875 C8.14063,-18.6875 9.01823,-18.487 9.77344,-18.0859 C10.5286,-17.6849 11.151,-17.1042 11.6406,-16.3438 C12.1302,-15.5833 12.5156,-14.6615 12.7969,-13.5781 C13.0781,-12.4948 13.2188,-11.026 13.2188,-9.17188 C13.2188,-6.99479 12.9948,-5.23438 12.5469,-3.89063 C12.099,-2.54688 11.4271,-1.51042 10.5313,-0.78125 C9.63542,-0.0520833 8.50521,0.3125 7.14063,0.3125 C5.34896,0.3125 3.94271,-0.328125 2.92188,-1.60938 C1.69271,-3.16146 1.07813,-5.68229 1.07813,-9.17188 M3.42188,-9.17188 C3.42188,-6.11979 3.78125,-4.08854 4.5,-3.07813 C5.21875,-2.06771 6.09896,-1.5625 7.14063,-1.5625 C8.19271,-1.5625 9.07813,-2.07031 9.79688,-3.08594 C10.5156,-4.10156 10.875,-6.13021 10.875,-9.17188 C10.875,-12.2448 10.5156,-14.2839 9.79688,-15.2891 C9.07813,-16.2943 8.1875,-16.7969 7.125,-16.7969 C6.07292,-16.7969 5.23438,-16.3542 4.60938,-15.4688 C3.81771,-14.3333 3.42188,-12.2344 3.42188,-9.17188 M16.3594,0 L16.3594,-2.60938 L18.9688,-2.60938 L18.9688,0 L16.3594,0 M30.6875,0 L28.4063,0 L28.4063,-14.5625 C27.8542,-14.0417 27.1302,-13.5182 26.2344,-12.9922 C25.3385,-12.4661 24.5365,-12.0729 23.8281,-11.8125 L23.8281,-14.0156 C25.1094,-14.6198 26.2292,-15.349 27.1875,-16.2031 C28.1458,-17.0573 28.8229,-17.8854 29.2188,-18.6875 L30.6875,-18.6875 L30.6875,0 M39.5938,-10.0938 C38.6458,-10.4375 37.9427,-10.9323 37.4844,-11.5781 C37.026,-12.224 36.7969,-12.9948 36.7969,-13.8906 C36.7969,-15.2448 37.2839,-16.3828 38.2578,-17.3047 C39.2318,-18.2266 40.526,-18.6875 42.1406,-18.6875 C43.7656,-18.6875 45.0755,-18.2161 46.0703,-17.2734 C47.0651,-16.3307 47.5625,-15.1823 47.5625,-13.8281 C47.5625,-12.9635 47.3359,-12.2109 46.8828,-11.5703 C46.4297,-10.9297 45.7396,-10.4375 44.8125,-10.0938 C45.9583,-9.71875 46.8281,-9.11719 47.4219,-8.28906 C48.0156,-7.46094 48.3125,-6.46875 48.3125,-5.3125 C48.3125,-3.72917 47.75,-2.39583 46.625,-1.3125 C45.5,-0.229167 44.0208,0.3125 42.1875,0.3125 C40.3542,0.3125 38.8724,-0.231771 37.7422,-1.32031 C36.612,-2.40885 36.0469,-3.76563 36.0469,-5.39063 C36.0469,-6.59896 36.3542,-7.61198 36.9688,-8.42969 C37.5833,-9.2474 38.4583,-9.80208 39.5938,-10.0938 M39.1406,-13.9688 C39.1406,-13.0833 39.4245,-12.362 39.9922,-11.8047 C40.5599,-11.2474 41.2969,-10.9688 42.2031,-10.9688 C43.0781,-10.9688 43.7969,-11.2448 44.3594,-11.7969 C44.9219,-12.349 45.2031,-13.0313 45.2031,-13.8438 C45.2031,-14.6771 44.9141,-15.3802 44.3359,-15.9531 C43.7578,-16.526 43.0365,-16.8125 42.1719,-16.8125 C41.2969,-16.8125 40.5729,-16.5339 40,-15.9766 C39.4271,-15.4193 39.1406,-14.75 39.1406,-13.9688 M38.4063,-5.375 C38.4063,-4.71875 38.5599,-4.08594 38.8672,-3.47656 C39.1745,-2.86719 39.6328,-2.39583 40.2422,-2.0625 C40.8516,-1.72917 41.5104,-1.5625 42.2188,-1.5625 C43.3021,-1.5625 44.2005,-1.91406 44.9141,-2.61719 C45.6276,-3.32031 45.9844,-4.21354 45.9844,-5.29688 C45.9844,-6.39063 45.6172,-7.29948 44.8828,-8.02344 C44.1484,-8.7474 43.2344,-9.10938 42.1406,-9.10938 C41.0573,-9.10938 40.1641,-8.7526 39.4609,-8.03906 C38.7578,-7.32552 38.4063,-6.4375 38.4063,-5.375 "/>
</g>

<g fill="#d9d9d9" fill-opacity="1" stroke="none" transform="matrix(0.75,0,0,0.75,67.5,26.1072)"
font-family="MS Shell Dlg 2" font-size="8.25" font-weight="400" font-style="normal" 
>
<path vector-effect="none" fill-rule="evenodd" d="M1.07813,-9.17188 C1.07813,-11.3802 1.30469,-13.1536 1.75781,-14.4922 C2.21094,-15.8307 2.88281,-16.8646 3.77344,-17.5938 C4.66406,-18.3229 5.78646,-18.6875 7.14063,-18.6875 C8.14063,-18.6875 9.01823,-18.487 9.77344,-18.0859 C10.5286,-17.6849 11.151,-17.1042 11.6406,-16.3438 C12.1302,-15.5833 12.5156,-14.6615 12.7969,-13.5781 C13.0781,-12.4948 13.2188,-11.026 13.2188,-9.17188 C13.2188,-6.99479 12.9948,-5.23438 12.5469,-3.89063 C12.099,-2.54688 11.4271,-1.51042 10.5313,-0.78125 C9.63542,-0.0520833 8.50521,0.3125 7.14063,0.3125 C5.34896,0.3125 3.94271,-0.328125 2.92188,-1.60938 C1.69271,-3.16146 1.07813,-5.68229 1.07813,-9.17188 M3.42188,-9.17188 C3.42188,-6.11979 3.78125,-4.08854 4.5,-3.07813 C5.21875,-2.06771 6.09896,-1.5625 7.14063,-1.5625 C8.19271,-1.5625 9.07813,-2.07031 9.79688,-3.08594 C10.5156,-4.10156 10.875,-6.13021 10.875,-9.17188 C10.875,-12.2448 10.5156,-14.2839 9.79688,-15.2891 C9.07813,-16.2943 8.1875,-16.7969 7.125,-16.7969 C6.07292,-16.7969 5.23438,-16.3542 4.60938,-15.4688 C3.81771,-14.3333 3.42188,-12.2344 3.42188,-9.17188 M16.3594,0 L16.3594,-2.60938 L18.9688,-2.60938 L18.9688,0 L16.3594,0 M34.0938,-2.20313 L34.0938,0 L21.7813,0 C21.7708,-0.552083 21.8594,-1.08333 22.0469,-1.59375 C22.3698,-2.42708 22.875,-3.25 23.5625,-4.0625 C24.25,-4.875 25.2448,-5.8125 26.5469,-6.875 C28.5677,-8.54167 29.9349,-9.85938 30.6484,-10.8281 C31.362,-11.7969 31.7188,-12.7135 31.7188,-13.5781 C31.7188,-14.4844 31.3932,-15.2474 30.7422,-15.8672 C30.0911,-16.487 29.25,-16.7969 28.2188,-16.7969 C27.1146,-16.7969 26.2318,-16.4661 25.5703,-15.8047 C24.9089,-15.1432 24.5729,-14.2292 24.5625,-13.0625 L22.2188,-13.3125 C22.375,-15.0625 22.9792,-16.3958 24.0313,-17.3125 C25.0833,-18.2292 26.4948,-18.6875 28.2656,-18.6875 C30.0469,-18.6875 31.4583,-18.1927 32.5,-17.2031 C33.5417,-16.2135 34.0625,-14.9844 34.0625,-13.5156 C34.0625,-12.776 33.9115,-12.0469 33.6094,-11.3281 C33.3073,-10.6094 32.8021,-9.85156 32.0938,-9.05469 C31.3854,-8.25781 30.2083,-7.16667 28.5625,-5.78125 C27.1979,-4.625 26.3203,-3.84115 25.9297,-3.42969 C25.5391,-3.01823 25.2188,-2.60938 24.9688,-2.20313 L34.0938,-2.20313"/>
</g>

<g fill="none" stroke="#1656a7" stroke-opacity="1" stroke-width="1.66667" stroke-linecap="butt" stroke-linejoin="round" transform="matrix(0.75,0,0,0.75,0,0)"
font-family="MS Shell Dlg 2" font-size="8.25" font-weight="400" font-style="normal" 
>
<polyline fill="none" vector-effect="none" points="133,25 563,25 993,25 993,332.5 993,640 563,640 133,640 133,332.5 133,25 " />
</g>

<g fill="none" stroke="#268cdd" stroke-opacity="1" stroke-width="2.66667" stroke-linecap="butt" stroke-linejoin="round" transform="matrix(0.75,0,0,0.75,0,0)"
font-family="MS Shell Dlg 2" font-size="8.25" font-weight="400" font-style="normal" 
>
<polyline fill="none" vector-effect="none" points="133,602.948 140.167,594.908 147.333,584.044 154.5,568.937 161.667,547.232 168.833,514.9 176,464.997 183.167,386.279 190.333,266.17 197.5,117.873 204.667,38.3129 211.833,603.292 219,595.417 226.167,584.826 233.333,570.194 240.5,549.361 247.667,518.742 254.833,472.425 262,401.598 269.167,298.502 276.333,178.851 283.5,117.873 290.667,604.288 297.833,596.878 305,587.046 312.167,573.71 319.333,555.201 326.5,528.971 333.667,491.351 340.833,438.159 348,368.855 355.167,298.502 362.333,266.17 369.5,605.833 376.667,599.11 383.833,590.373 391,578.843 398.167,563.424 405.333,542.658 412.5,514.9 419.667,479.247 426.833,438.159 434,401.598 441.167,386.279 448.333,607.785 455.5,601.874 462.667,594.387 469.833,584.826 477,572.578 484.167,556.984 491.333,537.609 498.5,514.9 505.667,491.351 512.833,472.425 520,464.997 527.167,609.988 534.333,604.923 541.5,598.682 548.667,590.99 555.833,581.559 563,570.194 570.167,556.984 577.333,542.658 584.5,528.971 591.667,518.742 598.833,514.9 606,612.304 613.167,608.045 620.333,602.948 627.5,596.878 634.667,589.742 641.833,581.559 649,572.578 656.167,563.424 663.333,555.201 670.5,549.361 677.667,547.232 684.833,614.619 692,611.087 699.167,606.976 706.333,602.239 713.5,596.878 720.667,590.99 727.833,584.826 735,578.843 742.167,573.71 749.333,570.194 756.5,568.937 763.667,616.851 770.833,613.949 778,610.658 785.167,606.976 792.333,602.948 799.5,598.682 806.667,594.387 813.833,590.373 821,587.046 828.167,584.826 835.333,584.044 842.5,618.949 849.667,616.576 856.833,613.949 864,611.087 871.167,608.045 878.333,604.923 885.5,601.874 892.667,599.11 899.833,596.878 907,595.417 914.167,594.908 921.333,620.885 928.5,618.949 935.667,616.851 942.833,614.619 950,612.304 957.167,609.988 964.333,607.785 971.5,605.833 978.667,604.288 985.833,603.292 993,602.948 " />
</g>
</g>
</svg>
